<svg xmlns="http://www.w3.org/2000/svg" xmlns:xlink="http://www.w3.org/1999/xlink" width="500" zoomAndPan="magnify" viewBox="0 0 375 374.999991" height="500" preserveAspectRatio="xMidYMid meet" version="1.0"><defs><g/><clipPath id="fd494e9fa7"><path d="M 8.753906 6.679688 L 366.246094 6.679688 L 366.246094 368.363281 L 8.753906 368.363281 Z M 8.753906 6.679688 " clip-rule="nonzero"/></clipPath><clipPath id="24142b9a1f"><path d="M 187.5 6.679688 C 88.78125 6.679688 8.753906 87.636719 8.753906 187.5 C 8.753906 287.363281 88.78125 368.316406 187.5 368.316406 C 286.21875 368.316406 366.246094 287.363281 366.246094 187.5 C 366.246094 87.636719 286.21875 6.679688 187.5 6.679688 Z M 187.5 6.679688 " clip-rule="nonzero"/></clipPath><clipPath id="057b5465a5"><path d="M 51.742188 51.742188 L 323.257812 51.742188 L 323.257812 323.257812 L 51.742188 323.257812 Z M 51.742188 51.742188 " clip-rule="nonzero"/></clipPath><clipPath id="ac9d262e8f"><path d="M 187.5 51.742188 C 112.523438 51.742188 51.742188 112.523438 51.742188 187.5 C 51.742188 262.476562 112.523438 323.257812 187.5 323.257812 C 262.476562 323.257812 323.257812 262.476562 323.257812 187.5 C 323.257812 112.523438 262.476562 51.742188 187.5 51.742188 Z M 187.5 51.742188 " clip-rule="nonzero"/></clipPath><clipPath id="c6637dcaf3"><path d="M 56.664062 56.664062 L 318.335938 56.664062 L 318.335938 318.335938 L 56.664062 318.335938 Z M 56.664062 56.664062 " clip-rule="nonzero"/></clipPath><clipPath id="5054d1e34d"><path d="M 187.5 56.664062 C 115.242188 56.664062 56.664062 115.242188 56.664062 187.5 C 56.664062 259.757812 115.242188 318.335938 187.5 318.335938 C 259.757812 318.335938 318.335938 259.757812 318.335938 187.5 C 318.335938 115.242188 259.757812 56.664062 187.5 56.664062 Z M 187.5 56.664062 " clip-rule="nonzero"/></clipPath><clipPath id="d4698d31b1"><path d="M 115 103.484375 L 261 103.484375 L 261 218 L 115 218 Z M 115 103.484375 " clip-rule="nonzero"/></clipPath><clipPath id="57a3891fb8"><path d="M 228 208 L 274.660156 208 L 274.660156 269 L 228 269 Z M 228 208 " clip-rule="nonzero"/></clipPath><clipPath id="eb93d51f96"><path d="M 100.660156 208 L 147 208 L 147 269 L 100.660156 269 Z M 100.660156 208 " clip-rule="nonzero"/></clipPath><clipPath id="26d53c3baa"><path d="M 154 223 L 221 223 L 221 271.484375 L 154 271.484375 Z M 154 223 " clip-rule="nonzero"/></clipPath></defs><g clip-path="url(#fd494e9fa7)"><g clip-path="url(#24142b9a1f)"><path fill="#ff3131" d="M 8.753906 6.679688 L 366.246094 6.679688 L 366.246094 368.363281 L 8.753906 368.363281 Z M 8.753906 6.679688 " fill-opacity="1" fill-rule="nonzero"/></g></g><g clip-path="url(#057b5465a5)"><g clip-path="url(#ac9d262e8f)"><path fill="#ffffff" d="M 51.742188 51.742188 L 323.257812 51.742188 L 323.257812 323.257812 L 51.742188 323.257812 Z M 51.742188 51.742188 " fill-opacity="1" fill-rule="nonzero"/></g></g><g clip-path="url(#c6637dcaf3)"><g clip-path="url(#5054d1e34d)"><path fill="#004aad" d="M 56.664062 56.664062 L 318.335938 56.664062 L 318.335938 318.335938 L 56.664062 318.335938 Z M 56.664062 56.664062 " fill-opacity="1" fill-rule="nonzero"/></g></g><g clip-path="url(#d4698d31b1)"><path fill="#ffffff" d="M 199.007812 217.339844 L 176.269531 217.339844 C 166.6875 217.339844 145.992188 198.820312 135.367188 185.539062 C 131.558594 180.777344 129.824219 164.144531 129.445312 159.960938 C 126.382812 158.171875 115.15625 150.199219 115.15625 129.570312 C 115.15625 124.238281 116.667969 120.507812 119.652344 118.5 C 122.894531 116.300781 126.992188 116.789062 129.371094 117.367188 L 129.371094 105.066406 C 129.371094 104.277344 130.003906 103.644531 130.789062 103.644531 C 131.578125 103.644531 132.210938 104.277344 132.210938 105.066406 L 132.210938 119.277344 C 132.210938 119.742188 131.980469 120.1875 131.589844 120.453125 C 131.203125 120.71875 130.703125 120.777344 130.269531 120.597656 C 130.214844 120.574219 124.761719 118.464844 121.230469 120.855469 C 119.089844 122.320312 118 125.25 118 129.570312 C 118 151.054688 130.855469 157.527344 131.402344 157.792969 C 131.855469 158.003906 132.167969 158.449219 132.199219 158.949219 C 132.679688 164.566406 134.554688 179.96875 137.585938 183.765625 C 148.722656 197.6875 168.464844 214.496094 176.269531 214.496094 L 199.007812 214.496094 C 206.8125 214.496094 226.554688 197.6875 237.691406 183.765625 C 240.722656 179.96875 242.601562 164.566406 243.078125 158.949219 C 243.109375 158.449219 243.421875 158.003906 243.875 157.792969 C 244.421875 157.527344 257.277344 151.054688 257.277344 129.570312 C 257.277344 125.25 256.191406 122.320312 254.046875 120.855469 C 250.515625 118.464844 245.066406 120.574219 245.007812 120.597656 C 244.578125 120.777344 244.078125 120.71875 243.6875 120.453125 C 243.300781 120.1875 243.066406 119.742188 243.066406 119.277344 L 243.066406 105.066406 C 243.066406 104.277344 243.699219 103.644531 244.488281 103.644531 C 245.277344 103.644531 245.910156 104.277344 245.910156 105.066406 L 245.910156 117.367188 C 248.285156 116.789062 252.382812 116.300781 255.625 118.5 C 258.609375 120.507812 260.121094 124.238281 260.121094 129.570312 C 260.121094 150.199219 248.894531 158.171875 245.832031 159.960938 C 245.453125 164.144531 243.722656 180.777344 239.914062 185.539062 C 229.289062 198.820312 208.589844 217.339844 199.007812 217.339844 " fill-opacity="1" fill-rule="nonzero"/></g><g clip-path="url(#57a3891fb8)"><path fill="#ffffff" d="M 272.910156 268.503906 C 272.765625 268.503906 272.613281 268.480469 272.46875 268.425781 C 254.800781 262.542969 238.667969 248.050781 232.863281 239.636719 C 230.242188 235.859375 228.855469 231.417969 228.855469 226.8125 L 228.855469 210.234375 C 228.855469 209.445312 229.488281 208.8125 230.277344 208.8125 C 231.0625 208.8125 231.695312 209.445312 231.695312 210.234375 L 231.695312 226.8125 C 231.695312 230.84375 232.90625 234.71875 235.195312 238.027344 C 240.789062 246.109375 256.324219 260.054688 273.355469 265.738281 C 274.101562 265.984375 274.511719 266.78125 274.253906 267.527344 C 274.066406 268.125 273.511719 268.503906 272.910156 268.503906 " fill-opacity="1" fill-rule="nonzero"/></g><g clip-path="url(#eb93d51f96)"><path fill="#ffffff" d="M 102.367188 268.503906 C 101.765625 268.503906 101.210938 268.125 101.023438 267.527344 C 100.769531 266.78125 101.179688 265.984375 101.921875 265.738281 C 118.953125 260.054688 134.488281 246.109375 140.085938 238.027344 C 142.371094 234.71875 143.582031 230.84375 143.582031 226.8125 L 143.582031 210.234375 C 143.582031 209.445312 144.214844 208.8125 145.003906 208.8125 C 145.792969 208.8125 146.425781 209.445312 146.425781 210.234375 L 146.425781 226.8125 C 146.425781 231.417969 145.035156 235.859375 142.414062 239.636719 C 136.609375 248.050781 120.476562 262.542969 102.8125 268.425781 C 102.667969 268.480469 102.511719 268.503906 102.367188 268.503906 " fill-opacity="1" fill-rule="nonzero"/></g><g clip-path="url(#26d53c3baa)"><path fill="#ffffff" d="M 187.640625 259.976562 C 190.871094 259.976562 192.65625 262.175781 194.246094 264.117188 C 196.078125 266.371094 197.820312 268.503906 201.828125 268.503906 C 206.171875 268.503906 210.445312 261.699219 211.765625 252.660156 C 212.386719 248.472656 213.765625 244.097656 214.976562 240.234375 C 216.75 234.574219 218.4375 229.222656 216.875 227.101562 C 216.273438 226.265625 215.0625 225.867188 213.175781 225.867188 C 210.410156 225.867188 205.070312 230.796875 201.175781 234.40625 C 197.03125 238.238281 194.976562 240.078125 193.3125 240.078125 L 181.964844 240.078125 C 180.300781 240.078125 178.246094 238.238281 174.105469 234.40625 C 170.207031 230.796875 164.867188 225.867188 162.101562 225.867188 C 160.214844 225.867188 159.003906 226.265625 158.40625 227.101562 C 156.839844 229.222656 158.527344 234.574219 160.304688 240.234375 C 161.511719 244.097656 162.890625 248.472656 163.511719 252.660156 C 164.832031 261.699219 169.109375 268.503906 173.449219 268.503906 C 177.457031 268.503906 179.199219 266.371094 181.03125 264.117188 C 182.621094 262.175781 184.40625 259.976562 187.640625 259.976562 Z M 201.828125 271.347656 C 196.464844 271.347656 194.011719 268.335938 192.035156 265.917969 C 190.425781 263.941406 189.425781 262.820312 187.640625 262.820312 C 185.851562 262.820312 184.851562 263.941406 183.242188 265.917969 C 181.265625 268.335938 178.8125 271.347656 173.449219 271.347656 C 166.53125 271.347656 161.992188 261.875 160.703125 253.082031 C 160.113281 249.105469 158.828125 245.03125 157.59375 241.089844 C 155.507812 234.4375 153.695312 228.699219 156.105469 225.414062 C 157.292969 223.800781 159.25 223.023438 162.101562 223.023438 C 165.988281 223.023438 171.316406 227.964844 176.023438 232.320312 C 178.191406 234.316406 181.15625 237.058594 182.03125 237.25 L 193.269531 237.238281 C 194.167969 237.015625 197.097656 234.304688 199.253906 232.320312 C 203.960938 227.964844 209.289062 223.023438 213.175781 223.023438 C 216.03125 223.023438 217.984375 223.800781 219.171875 225.414062 C 221.582031 228.699219 219.773438 234.4375 217.683594 241.089844 C 216.453125 245.03125 215.164062 249.105469 214.574219 253.082031 C 213.289062 261.875 208.746094 271.347656 201.828125 271.347656 " fill-opacity="1" fill-rule="nonzero"/></g><path fill="#ffffff" d="M 190.480469 251.449219 L 184.796875 251.449219 C 184.417969 251.449219 184.054688 251.304688 183.796875 251.039062 L 178.113281 245.34375 C 177.667969 244.921875 177.570312 244.253906 177.847656 243.710938 L 180.6875 238.027344 C 181.042969 237.328125 181.898438 237.039062 182.597656 237.394531 C 183.296875 237.738281 183.585938 238.59375 183.230469 239.292969 L 180.84375 244.066406 L 185.386719 248.605469 L 189.894531 248.605469 L 194.433594 244.066406 L 192.046875 239.292969 C 191.691406 238.59375 191.980469 237.738281 192.679688 237.394531 C 193.378906 237.039062 194.234375 237.328125 194.589844 238.027344 L 197.433594 243.710938 C 197.710938 244.253906 197.609375 244.921875 197.164062 245.34375 L 191.480469 251.039062 C 191.226562 251.304688 190.859375 251.449219 190.480469 251.449219 " fill-opacity="1" fill-rule="nonzero"/><path fill="#ffffff" d="M 201.851562 248.605469 C 201.640625 248.605469 201.417969 248.5625 201.21875 248.460938 L 195.535156 245.621094 C 194.835938 245.265625 194.546875 244.410156 194.890625 243.710938 C 195.246094 243 196.101562 242.722656 196.800781 243.066406 L 201.375 245.355469 L 205.769531 238.914062 L 201.019531 232.417969 C 200.550781 231.785156 200.695312 230.898438 201.328125 230.429688 C 201.960938 229.964844 202.851562 230.109375 203.304688 230.742188 L 208.65625 238.046875 C 209.011719 238.535156 209.023438 239.191406 208.679688 239.691406 L 203.027344 247.984375 C 202.75 248.386719 202.304688 248.605469 201.851562 248.605469 " fill-opacity="1" fill-rule="nonzero"/><path fill="#ffffff" d="M 173.425781 248.605469 C 172.972656 248.605469 172.527344 248.386719 172.25 247.984375 L 166.597656 239.691406 C 166.253906 239.191406 166.265625 238.535156 166.621094 238.046875 L 171.972656 230.742188 C 172.425781 230.109375 173.316406 229.964844 173.949219 230.429688 C 174.582031 230.898438 174.726562 231.785156 174.257812 232.417969 L 169.507812 238.914062 L 173.90625 245.355469 L 178.480469 243.066406 C 179.179688 242.722656 180.035156 243 180.390625 243.710938 C 180.734375 244.410156 180.445312 245.265625 179.746094 245.621094 L 174.058594 248.460938 C 173.859375 248.5625 173.636719 248.605469 173.425781 248.605469 " fill-opacity="1" fill-rule="nonzero"/><path fill="#ffffff" d="M 207.535156 240.078125 C 206.824219 240.078125 206.214844 239.558594 206.125 238.835938 C 206.027344 238.058594 206.582031 237.347656 207.359375 237.25 L 217.140625 236.027344 C 217.917969 235.9375 218.628906 236.480469 218.726562 237.257812 C 218.816406 238.035156 218.273438 238.746094 217.496094 238.847656 L 207.714844 240.070312 C 207.648438 240.078125 207.589844 240.078125 207.535156 240.078125 " fill-opacity="1" fill-rule="nonzero"/><path fill="#ffffff" d="M 167.742188 240.078125 C 167.6875 240.078125 167.632812 240.078125 167.566406 240.070312 L 157.78125 238.847656 C 157.003906 238.746094 156.460938 238.035156 156.550781 237.257812 C 156.648438 236.480469 157.359375 235.9375 158.136719 236.027344 L 167.917969 237.25 C 168.695312 237.347656 169.253906 238.058594 169.152344 238.835938 C 169.0625 239.558594 168.453125 240.078125 167.742188 240.078125 " fill-opacity="1" fill-rule="nonzero"/><path fill="#ffffff" d="M 207.535156 257.132812 C 207.082031 257.132812 206.625 256.914062 206.359375 256.5 L 200.675781 247.972656 C 200.230469 247.320312 200.40625 246.441406 201.0625 246.007812 C 201.71875 245.566406 202.59375 245.742188 203.027344 246.398438 L 208.714844 254.925781 C 209.15625 255.578125 208.980469 256.457031 208.324219 256.902344 C 208.082031 257.054688 207.800781 257.132812 207.535156 257.132812 " fill-opacity="1" fill-rule="nonzero"/><path fill="#ffffff" d="M 167.742188 257.132812 C 167.476562 257.132812 167.199219 257.054688 166.953125 256.902344 C 166.296875 256.457031 166.121094 255.578125 166.566406 254.925781 L 172.25 246.398438 C 172.683594 245.742188 173.558594 245.566406 174.214844 246.007812 C 174.871094 246.441406 175.046875 247.320312 174.605469 247.972656 L 168.917969 256.5 C 168.652344 256.914062 168.199219 257.132812 167.742188 257.132812 " fill-opacity="1" fill-rule="nonzero"/><path fill="#ffffff" d="M 192.867188 266.117188 C 192.648438 266.117188 192.414062 266.0625 192.191406 265.949219 C 191.503906 265.574219 191.246094 264.71875 191.613281 264.019531 L 194.910156 257.878906 C 195.101562 257.535156 195.433594 257.277344 195.820312 257.179688 L 207.191406 254.335938 C 207.601562 254.238281 208.046875 254.324219 208.390625 254.582031 L 212.597656 257.734375 C 213.222656 258.199219 213.355469 259.089844 212.875 259.722656 C 212.410156 260.355469 211.523438 260.476562 210.890625 260.011719 L 207.226562 257.257812 L 197.121094 259.777344 L 194.125 265.363281 C 193.867188 265.851562 193.378906 266.117188 192.867188 266.117188 " fill-opacity="1" fill-rule="nonzero"/><path fill="#ffffff" d="M 182.410156 266.117188 C 181.898438 266.117188 181.410156 265.851562 181.15625 265.363281 L 178.15625 259.777344 L 168.054688 257.257812 L 164.390625 260.011719 C 163.757812 260.476562 162.867188 260.34375 162.402344 259.722656 C 161.925781 259.089844 162.058594 258.199219 162.679688 257.734375 L 166.886719 254.582031 C 167.230469 254.324219 167.675781 254.238281 168.085938 254.335938 L 179.457031 257.179688 C 179.84375 257.277344 180.179688 257.535156 180.367188 257.878906 L 183.664062 264.019531 C 184.03125 264.71875 183.773438 265.574219 183.085938 265.949219 C 182.863281 266.0625 182.632812 266.117188 182.410156 266.117188 " fill-opacity="1" fill-rule="nonzero"/><path fill="#ffffff" d="M 196.167969 259.976562 C 195.710938 259.976562 195.257812 259.753906 194.988281 259.34375 L 189.304688 250.816406 C 188.859375 250.160156 189.039062 249.285156 189.691406 248.851562 C 190.347656 248.40625 191.226562 248.585938 191.660156 249.238281 L 197.34375 257.765625 C 197.789062 258.421875 197.609375 259.300781 196.953125 259.742188 C 196.710938 259.898438 196.433594 259.976562 196.167969 259.976562 " fill-opacity="1" fill-rule="nonzero"/><path fill="#ffffff" d="M 179.113281 259.976562 C 178.84375 259.976562 178.566406 259.898438 178.324219 259.742188 C 177.667969 259.300781 177.492188 258.421875 177.933594 257.765625 L 183.621094 249.238281 C 184.042969 248.585938 184.929688 248.40625 185.585938 248.851562 C 186.238281 249.285156 186.417969 250.160156 185.972656 250.816406 L 180.289062 259.34375 C 180.023438 259.753906 179.566406 259.976562 179.113281 259.976562 " fill-opacity="1" fill-rule="nonzero"/><g fill="#ffffff" fill-opacity="1"><g transform="translate(70.465938, 99.969294)"><g><path d="M 2.609375 -18.40625 C 4.890625 -16.738281 6.160156 -14.8125 6.421875 -12.625 C 6.691406 -10.445312 5.929688 -8.132812 4.140625 -5.6875 L 1.265625 -1.734375 L -12.609375 -11.859375 L -9.421875 -16.234375 C -7.765625 -18.492188 -5.878906 -19.8125 -3.765625 -20.1875 C -1.660156 -20.5625 0.460938 -19.96875 2.609375 -18.40625 Z M 0.4375 -15.3125 C -2.53125 -17.476562 -4.972656 -17.25 -6.890625 -14.625 L -8.03125 -13.046875 L 0.984375 -6.46875 L 1.90625 -7.71875 C 3.96875 -10.5625 3.476562 -13.09375 0.4375 -15.3125 Z M 0.4375 -15.3125 "/></g></g></g><g fill="#ffffff" fill-opacity="1"><g transform="translate(80.572042, 86.336792)"><g><path d="M -3.828125 -15.78125 C -3.503906 -16.132812 -3.21875 -16.410156 -2.96875 -16.609375 L -0.640625 -14.1875 C -0.890625 -14.019531 -1.148438 -13.78125 -1.421875 -13.46875 C -2.191406 -12.613281 -2.566406 -11.75 -2.546875 -10.875 C -2.535156 -10.007812 -2.132812 -9.226562 -1.34375 -8.53125 L 3.640625 -4.078125 L 1.25 -1.40625 L -8.546875 -10.15625 L -6.734375 -12.171875 L -4.734375 -11.109375 L -4.609375 -11.234375 C -4.890625 -12.023438 -4.96875 -12.828125 -4.84375 -13.640625 C -4.71875 -14.453125 -4.378906 -15.164062 -3.828125 -15.78125 Z M -3.828125 -15.78125 "/></g></g></g><g fill="#ffffff" fill-opacity="1"><g transform="translate(87.536799, 78.608327)"><g><path d="M -0.203125 -2.171875 C -0.660156 -2.628906 -0.878906 -3.101562 -0.859375 -3.59375 C -0.847656 -4.082031 -0.609375 -4.5625 -0.140625 -5.03125 C 0.328125 -5.488281 0.804688 -5.71875 1.296875 -5.71875 C 1.785156 -5.726562 2.253906 -5.507812 2.703125 -5.0625 C 3.140625 -4.613281 3.351562 -4.132812 3.34375 -3.625 C 3.34375 -3.125 3.113281 -2.648438 2.65625 -2.203125 C 2.195312 -1.734375 1.71875 -1.492188 1.21875 -1.484375 C 0.71875 -1.484375 0.242188 -1.710938 -0.203125 -2.171875 Z M -0.203125 -2.171875 "/></g></g></g><g fill="#ffffff" fill-opacity="1"><g transform="translate(92.135837, 74.047143)"><g/></g></g><g fill="#ffffff" fill-opacity="1"><g transform="translate(95.836104, 70.058256)"><g><path d="M 15.21875 -11.203125 L 11.875 -8.734375 L 4.640625 -14.640625 C 4.398438 -14.835938 3.894531 -15.28125 3.125 -15.96875 C 2.363281 -16.664062 1.863281 -17.144531 1.625 -17.40625 C 1.832031 -17.03125 2.140625 -16.410156 2.546875 -15.546875 C 2.953125 -14.679688 3.234375 -14.054688 3.390625 -13.671875 L 6.859375 -5.046875 L 3.53125 -2.59375 L -10.171875 -13.828125 L -7.296875 -15.953125 L 0.03125 -9.703125 C 1.375 -8.535156 2.488281 -7.492188 3.375 -6.578125 C 3.144531 -6.972656 2.816406 -7.597656 2.390625 -8.453125 C 1.972656 -9.304688 1.671875 -9.984375 1.484375 -10.484375 L -2.1875 -19.703125 L 0.59375 -21.75 L 8.296875 -15.5 C 8.640625 -15.207031 9.140625 -14.75 9.796875 -14.125 C 10.453125 -13.507812 11.007812 -12.976562 11.46875 -12.53125 C 11.15625 -13.0625 10.796875 -13.742188 10.390625 -14.578125 C 9.992188 -15.421875 9.6875 -16.113281 9.46875 -16.65625 L 5.6875 -25.5 L 8.5625 -27.625 Z M 15.21875 -11.203125 "/></g></g></g><g fill="#ffffff" fill-opacity="1"><g transform="translate(114.060398, 57.107109)"><g><path d="M -6.84375 -15.140625 C -7.4375 -16.148438 -7.175781 -16.984375 -6.0625 -17.640625 C -4.9375 -18.296875 -4.078125 -18.117188 -3.484375 -17.109375 C -3.203125 -16.628906 -3.125 -16.171875 -3.25 -15.734375 C -3.375 -15.304688 -3.71875 -14.929688 -4.28125 -14.609375 C -5.394531 -13.953125 -6.25 -14.128906 -6.84375 -15.140625 Z M 4.71875 -2.765625 L 1.625 -0.953125 L -5.015625 -12.296875 L -1.921875 -14.109375 Z M 4.71875 -2.765625 "/></g></g></g><g fill="#ffffff" fill-opacity="1"><g transform="translate(120.021571, 53.607082)"><g><path d="M 4.859375 -2.515625 L 1.65625 -0.859375 L -6.765625 -17.078125 L -3.5625 -18.734375 Z M 4.859375 -2.515625 "/></g></g></g><g fill="#ffffff" fill-opacity="1"><g transform="translate(125.545768, 50.200544)"><g><path d="M 12.703125 -4.96875 L 9.375 -3.65625 L 6.578125 -10.796875 C 6.234375 -11.679688 5.828125 -12.285156 5.359375 -12.609375 C 4.890625 -12.941406 4.335938 -12.984375 3.703125 -12.734375 C 2.847656 -12.398438 2.347656 -11.84375 2.203125 -11.0625 C 2.066406 -10.289062 2.28125 -9.1875 2.84375 -7.75 L 5.09375 -1.984375 L 1.75 -0.6875 L -3.03125 -12.921875 L -0.46875 -13.921875 L 0.578125 -12.53125 L 0.765625 -12.59375 C 0.867188 -13.289062 1.171875 -13.914062 1.671875 -14.46875 C 2.171875 -15.019531 2.820312 -15.457031 3.625 -15.78125 C 5.445312 -16.488281 6.914062 -16.375 8.03125 -15.4375 L 8.328125 -15.5625 C 8.441406 -16.257812 8.753906 -16.882812 9.265625 -17.4375 C 9.785156 -18 10.445312 -18.4375 11.25 -18.75 C 12.625 -19.289062 13.804688 -19.347656 14.796875 -18.921875 C 15.796875 -18.492188 16.601562 -17.492188 17.21875 -15.921875 L 20.328125 -7.953125 L 16.984375 -6.640625 L 14.1875 -13.78125 C 13.84375 -14.664062 13.4375 -15.269531 12.96875 -15.59375 C 12.5 -15.925781 11.953125 -15.96875 11.328125 -15.71875 C 10.492188 -15.394531 9.988281 -14.863281 9.8125 -14.125 C 9.644531 -13.382812 9.804688 -12.378906 10.296875 -11.109375 Z M 12.703125 -4.96875 "/></g></g></g><g fill="#ffffff" fill-opacity="1"><g transform="translate(146.607682, 42.217538)"><g><path d="M 4.484375 -12.265625 C 3.753906 -12.085938 3.238281 -11.710938 2.9375 -11.140625 C 2.644531 -10.566406 2.570312 -9.847656 2.71875 -8.984375 L 7.609375 -10.1875 C 7.378906 -11.039062 6.984375 -11.644531 6.421875 -12 C 5.867188 -12.363281 5.222656 -12.453125 4.484375 -12.265625 Z M 7.65625 -1.640625 C 5.601562 -1.140625 3.859375 -1.3125 2.421875 -2.15625 C 0.984375 -3.007812 0.0078125 -4.472656 -0.5 -6.546875 C -1.03125 -8.691406 -0.90625 -10.472656 -0.125 -11.890625 C 0.644531 -13.316406 1.972656 -14.265625 3.859375 -14.734375 C 5.660156 -15.179688 7.191406 -15.015625 8.453125 -14.234375 C 9.710938 -13.460938 10.566406 -12.171875 11.015625 -10.359375 L 11.4375 -8.671875 L 3.21875 -6.640625 C 3.488281 -5.648438 3.96875 -4.945312 4.65625 -4.53125 C 5.351562 -4.113281 6.191406 -4.03125 7.171875 -4.28125 C 7.941406 -4.46875 8.648438 -4.726562 9.296875 -5.0625 C 9.941406 -5.394531 10.59375 -5.820312 11.25 -6.34375 L 11.90625 -3.65625 C 11.375 -3.207031 10.78125 -2.820312 10.125 -2.5 C 9.46875 -2.175781 8.644531 -1.890625 7.65625 -1.640625 Z M 7.65625 -1.640625 "/></g></g></g><g fill="#ffffff" fill-opacity="1"><g transform="translate(159.703787, 39.016711)"><g><path d="M 7.03125 -14.65625 C 7.5 -14.726562 7.898438 -14.757812 8.234375 -14.75 L 8.484375 -11.375 C 8.179688 -11.40625 7.828125 -11.390625 7.421875 -11.328125 C 6.285156 -11.148438 5.453125 -10.722656 4.921875 -10.046875 C 4.390625 -9.367188 4.203125 -8.507812 4.359375 -7.46875 L 5.40625 -0.859375 L 1.859375 -0.296875 L -0.1875 -13.28125 L 2.484375 -13.703125 L 3.359375 -11.578125 L 3.53125 -11.609375 C 3.8125 -12.410156 4.257812 -13.085938 4.875 -13.640625 C 5.5 -14.191406 6.21875 -14.53125 7.03125 -14.65625 Z M 7.03125 -14.65625 "/></g></g></g><g fill="#ffffff" fill-opacity="1"><g transform="translate(170.006308, 37.446635)"><g/></g></g><g fill="#ffffff" fill-opacity="1"><g transform="translate(175.475513, 36.597433)"><g><path d="M 17.65625 -8.796875 C 17.6875 -5.953125 17.003906 -3.757812 15.609375 -2.21875 C 14.210938 -0.675781 12.203125 0.109375 9.578125 0.140625 C 6.941406 0.160156 4.910156 -0.582031 3.484375 -2.09375 C 2.054688 -3.601562 1.328125 -5.789062 1.296875 -8.65625 C 1.273438 -11.507812 1.960938 -13.695312 3.359375 -15.21875 C 4.765625 -16.75 6.785156 -17.523438 9.421875 -17.546875 C 12.066406 -17.578125 14.09375 -16.835938 15.5 -15.328125 C 16.914062 -13.828125 17.632812 -11.648438 17.65625 -8.796875 Z M 5.125 -8.65625 C 5.144531 -6.738281 5.523438 -5.296875 6.265625 -4.328125 C 7.003906 -3.367188 8.097656 -2.894531 9.546875 -2.90625 C 12.453125 -2.9375 13.882812 -4.882812 13.84375 -8.75 C 13.8125 -12.625 12.347656 -14.546875 9.453125 -14.515625 C 8.003906 -14.503906 6.914062 -14.003906 6.1875 -13.015625 C 5.457031 -12.023438 5.101562 -10.570312 5.125 -8.65625 Z M 5.125 -8.65625 "/></g></g></g><g fill="#ffffff" fill-opacity="1"><g transform="translate(193.670245, 36.511792)"><g><path d="M 4.96875 0.515625 L 1.34375 -13.078125 L 5.078125 -12.6875 L 6.828125 -4.984375 C 7.015625 -4.015625 7.097656 -3.097656 7.078125 -2.234375 L 7.15625 -2.234375 C 7.269531 -2.992188 7.535156 -3.867188 7.953125 -4.859375 L 11.234375 -12.0625 L 14.953125 -11.671875 L 8.640625 0.890625 Z M 4.96875 0.515625 "/></g></g></g><g fill="#ffffff" fill-opacity="1"><g transform="translate(206.66112, 37.940937)"><g><path d="M 4.578125 -15.984375 C 4.773438 -17.128906 5.507812 -17.585938 6.78125 -17.359375 C 8.070312 -17.128906 8.617188 -16.441406 8.421875 -15.296875 C 8.328125 -14.753906 8.085938 -14.359375 7.703125 -14.109375 C 7.328125 -13.859375 6.816406 -13.789062 6.171875 -13.90625 C 4.898438 -14.132812 4.367188 -14.828125 4.578125 -15.984375 Z M 5.390625 0.953125 L 1.84375 0.328125 L 4.125 -12.609375 L 7.671875 -11.984375 Z M 5.390625 0.953125 "/></g></g></g><g fill="#ffffff" fill-opacity="1"><g transform="translate(213.304709, 38.961152)"><g><path d="M 9.765625 -8.703125 C 9.035156 -8.890625 8.398438 -8.800781 7.859375 -8.4375 C 7.316406 -8.082031 6.910156 -7.476562 6.640625 -6.625 L 11.515625 -5.390625 C 11.710938 -6.265625 11.648438 -6.988281 11.328125 -7.5625 C 11.015625 -8.132812 10.492188 -8.515625 9.765625 -8.703125 Z M 7.53125 2.15625 C 5.476562 1.632812 4.015625 0.660156 3.140625 -0.765625 C 2.273438 -2.191406 2.109375 -3.9375 2.640625 -6 C 3.179688 -8.144531 4.128906 -9.660156 5.484375 -10.546875 C 6.847656 -11.441406 8.476562 -11.648438 10.375 -11.171875 C 12.164062 -10.710938 13.429688 -9.84375 14.171875 -8.5625 C 14.921875 -7.28125 15.066406 -5.734375 14.609375 -3.921875 L 14.171875 -2.25 L 5.96875 -4.34375 C 5.75 -3.34375 5.84375 -2.492188 6.25 -1.796875 C 6.65625 -1.109375 7.347656 -0.640625 8.328125 -0.390625 C 9.097656 -0.203125 9.847656 -0.0976562 10.578125 -0.078125 C 11.304688 -0.0546875 12.085938 -0.128906 12.921875 -0.296875 L 12.234375 2.390625 C 11.535156 2.535156 10.820312 2.59375 10.09375 2.5625 C 9.375 2.539062 8.519531 2.40625 7.53125 2.15625 Z M 7.53125 2.15625 "/></g></g></g><g fill="#ffffff" fill-opacity="1"><g transform="translate(226.275688, 42.184492)"><g><path d="M 5.609375 2.296875 C 4.148438 1.765625 3.210938 0.785156 2.796875 -0.640625 C 2.378906 -2.066406 2.535156 -3.78125 3.265625 -5.78125 C 4.003906 -7.800781 4.992188 -9.21875 6.234375 -10.03125 C 7.484375 -10.851562 8.851562 -10.992188 10.34375 -10.453125 C 11.894531 -9.890625 12.863281 -8.859375 13.25 -7.359375 L 13.34375 -7.328125 C 13.507812 -8.304688 13.726562 -9.15625 14 -9.875 L 15.4375 -13.828125 L 18.8125 -12.59375 L 12.546875 4.578125 L 9.96875 3.640625 L 9.90625 1.8125 L 9.75 1.75 C 8.550781 2.675781 7.171875 2.859375 5.609375 2.296875 Z M 7.765625 0.03125 C 8.617188 0.34375 9.335938 0.320312 9.921875 -0.03125 C 10.503906 -0.382812 11.035156 -1.148438 11.515625 -2.328125 L 11.640625 -2.6875 C 12.128906 -4.019531 12.269531 -5.046875 12.0625 -5.765625 C 11.863281 -6.484375 11.304688 -7.007812 10.390625 -7.34375 C 9.648438 -7.613281 8.953125 -7.507812 8.296875 -7.03125 C 7.648438 -6.550781 7.109375 -5.707031 6.671875 -4.5 C 6.222656 -3.28125 6.097656 -2.289062 6.296875 -1.53125 C 6.492188 -0.769531 6.984375 -0.25 7.765625 0.03125 Z M 7.765625 0.03125 "/></g></g></g><g fill="#ffffff" fill-opacity="1"><g transform="translate(239.774157, 47.067865)"><g><path d="M 7.140625 -3.84375 C 6.566406 -2.675781 6.328125 -1.695312 6.421875 -0.90625 C 6.515625 -0.125 6.992188 0.472656 7.859375 0.890625 C 8.722656 1.304688 9.488281 1.3125 10.15625 0.90625 C 10.820312 0.5 11.441406 -0.289062 12.015625 -1.46875 C 12.578125 -2.644531 12.8125 -3.613281 12.71875 -4.375 C 12.625 -5.144531 12.144531 -5.742188 11.28125 -6.171875 C 10.414062 -6.585938 9.648438 -6.597656 8.984375 -6.203125 C 8.316406 -5.804688 7.703125 -5.019531 7.140625 -3.84375 Z M 15.3125 0.125 C 14.375 2.039062 13.132812 3.289062 11.59375 3.875 C 10.050781 4.46875 8.367188 4.328125 6.546875 3.453125 C 5.410156 2.898438 4.53125 2.164062 3.90625 1.25 C 3.289062 0.332031 2.976562 -0.703125 2.96875 -1.859375 C 2.957031 -3.023438 3.253906 -4.222656 3.859375 -5.453125 C 4.796875 -7.390625 6.023438 -8.644531 7.546875 -9.21875 C 9.078125 -9.800781 10.757812 -9.644531 12.59375 -8.75 C 13.71875 -8.195312 14.59375 -7.460938 15.21875 -6.546875 C 15.851562 -5.628906 16.175781 -4.597656 16.1875 -3.453125 C 16.207031 -2.304688 15.914062 -1.113281 15.3125 0.125 Z M 15.3125 0.125 "/></g></g></g><g fill="#ffffff" fill-opacity="1"><g transform="translate(252.54799, 53.439464)"><g/></g></g><g fill="#ffffff" fill-opacity="1"><g transform="translate(257.505231, 56.064717)"><g><path d="M 11.515625 -12.921875 L 15.90625 -9.890625 C 17.914062 -8.503906 19.179688 -7.210938 19.703125 -6.015625 C 20.222656 -4.828125 20.050781 -3.609375 19.1875 -2.359375 C 18.613281 -1.523438 17.9375 -0.972656 17.15625 -0.703125 C 16.382812 -0.429688 15.632812 -0.46875 14.90625 -0.8125 L 14.84375 -0.703125 C 15.601562 0.0976562 15.988281 0.910156 16 1.734375 C 16.019531 2.554688 15.71875 3.421875 15.09375 4.328125 C 14.195312 5.628906 13.035156 6.316406 11.609375 6.390625 C 10.179688 6.472656 8.671875 5.96875 7.078125 4.875 L 1.78125 1.21875 Z M 10.65625 -5.265625 L 12.40625 -4.0625 C 13.21875 -3.5 13.894531 -3.21875 14.4375 -3.21875 C 14.976562 -3.226562 15.445312 -3.519531 15.84375 -4.09375 C 16.21875 -4.632812 16.285156 -5.15625 16.046875 -5.65625 C 15.804688 -6.164062 15.257812 -6.71875 14.40625 -7.3125 L 12.828125 -8.40625 Z M 9.03125 -2.890625 L 6.484375 0.796875 L 8.4375 2.140625 C 9.269531 2.710938 9.988281 2.976562 10.59375 2.9375 C 11.207031 2.894531 11.738281 2.546875 12.1875 1.890625 C 13 0.710938 12.566406 -0.445312 10.890625 -1.59375 Z M 9.03125 -2.890625 "/></g></g></g><g fill="#ffffff" fill-opacity="1"><g transform="translate(270.091305, 64.724098)"><g><path d="M 7.765625 6.640625 L 8.390625 4.84375 L 8.328125 4.78125 C 7.378906 4.96875 6.5625 4.960938 5.875 4.765625 C 5.195312 4.566406 4.472656 4.132812 3.703125 3.46875 C 2.742188 2.65625 2.222656 1.738281 2.140625 0.71875 C 2.054688 -0.289062 2.445312 -1.304688 3.3125 -2.328125 C 4.21875 -3.378906 5.253906 -3.835938 6.421875 -3.703125 C 7.597656 -3.578125 8.960938 -2.898438 10.515625 -1.671875 L 12.28125 -0.234375 L 12.65625 -0.671875 C 13.519531 -1.691406 13.429688 -2.644531 12.390625 -3.53125 C 11.597656 -4.21875 10.457031 -4.78125 8.96875 -5.21875 L 9.65625 -7.828125 C 11.3125 -7.453125 12.835938 -6.664062 14.234375 -5.46875 C 15.578125 -4.320312 16.351562 -3.148438 16.5625 -1.953125 C 16.769531 -0.765625 16.363281 0.425781 15.34375 1.625 L 9.65625 8.265625 Z M 10.9375 1.34375 L 9.84375 0.46875 C 9.019531 -0.175781 8.300781 -0.535156 7.6875 -0.609375 C 7.082031 -0.679688 6.554688 -0.453125 6.109375 0.078125 C 5.453125 0.847656 5.5625 1.609375 6.4375 2.359375 C 7.070312 2.898438 7.734375 3.15625 8.421875 3.125 C 9.109375 3.09375 9.707031 2.773438 10.21875 2.171875 Z M 10.9375 1.34375 "/></g></g></g><g fill="#ffffff" fill-opacity="1"><g transform="translate(280.536024, 73.726728)"><g><path d="M 16 -2.78125 C 16.332031 -2.4375 16.59375 -2.128906 16.78125 -1.859375 L 14.203125 0.3125 C 14.046875 0.0507812 13.820312 -0.222656 13.53125 -0.515625 C 12.726562 -1.335938 11.894531 -1.769531 11.03125 -1.8125 C 10.164062 -1.851562 9.359375 -1.507812 8.609375 -0.78125 L 3.828125 3.90625 L 1.3125 1.34375 L 10.703125 -7.859375 L 12.609375 -5.921875 L 11.390625 -3.984375 L 11.5 -3.859375 C 12.320312 -4.085938 13.132812 -4.109375 13.9375 -3.921875 C 14.738281 -3.742188 15.425781 -3.363281 16 -2.78125 Z M 16 -2.78125 "/></g></g></g><g fill="#ffffff" fill-opacity="1"><g transform="translate(287.754665, 81.058886)"><g><path d="M 16.171875 -1.578125 C 16.484375 -1.210938 16.71875 -0.882812 16.875 -0.59375 L 14.140625 1.375 C 14.003906 1.101562 13.800781 0.804688 13.53125 0.484375 C 12.789062 -0.390625 11.992188 -0.878906 11.140625 -0.984375 C 10.285156 -1.085938 9.453125 -0.800781 8.640625 -0.125 L 3.53125 4.1875 L 1.203125 1.4375 L 11.25 -7.03125 L 13 -4.953125 L 11.65625 -3.109375 L 11.765625 -2.984375 C 12.597656 -3.148438 13.40625 -3.113281 14.1875 -2.875 C 14.976562 -2.632812 15.640625 -2.203125 16.171875 -1.578125 Z M 16.171875 -1.578125 "/></g></g></g><g fill="#ffffff" fill-opacity="1"><g transform="translate(294.40842, 88.76452)"><g><path d="M 8.125 0.09375 C 7.050781 0.832031 6.363281 1.566406 6.0625 2.296875 C 5.757812 3.035156 5.882812 3.800781 6.4375 4.59375 C 6.988281 5.375 7.65625 5.742188 8.4375 5.703125 C 9.21875 5.671875 10.148438 5.28125 11.234375 4.53125 C 12.296875 3.78125 12.96875 3.046875 13.25 2.328125 C 13.53125 1.609375 13.394531 0.859375 12.84375 0.078125 C 12.289062 -0.710938 11.628906 -1.09375 10.859375 -1.0625 C 10.097656 -1.039062 9.1875 -0.65625 8.125 0.09375 Z M 13.34375 7.53125 C 11.59375 8.75 9.898438 9.242188 8.265625 9.015625 C 6.628906 8.796875 5.226562 7.859375 4.0625 6.203125 C 3.34375 5.171875 2.929688 4.101562 2.828125 3 C 2.722656 1.894531 2.945312 0.832031 3.5 -0.1875 C 4.050781 -1.21875 4.894531 -2.125 6.03125 -2.90625 C 7.78125 -4.144531 9.460938 -4.640625 11.078125 -4.390625 C 12.691406 -4.148438 14.082031 -3.203125 15.25 -1.546875 C 15.96875 -0.515625 16.378906 0.550781 16.484375 1.65625 C 16.597656 2.757812 16.382812 3.816406 15.84375 4.828125 C 15.300781 5.835938 14.46875 6.738281 13.34375 7.53125 Z M 13.34375 7.53125 "/></g></g></g><g fill="#ffffff" fill-opacity="1"><g transform="translate(302.487306, 100.337961)"><g><path d="M 8.875 7.65625 C 7.695312 8.320312 6.570312 8.421875 5.5 7.953125 C 4.425781 7.484375 3.425781 6.441406 2.5 4.828125 C 2.019531 3.992188 1.671875 3.253906 1.453125 2.609375 C 1.234375 1.960938 1.085938 1.328125 1.015625 0.703125 L 3.578125 -0.765625 C 3.640625 -0.0351562 3.785156 0.738281 4.015625 1.5625 C 4.242188 2.394531 4.519531 3.085938 4.84375 3.640625 C 5.476562 4.765625 6.117188 5.140625 6.765625 4.765625 C 7.015625 4.628906 7.171875 4.441406 7.234375 4.203125 C 7.304688 3.960938 7.335938 3.601562 7.328125 3.125 C 7.316406 2.65625 7.257812 2.046875 7.15625 1.296875 C 7.03125 0.191406 7.003906 -0.648438 7.078125 -1.234375 C 7.148438 -1.828125 7.332031 -2.332031 7.625 -2.75 C 7.925781 -3.164062 8.375 -3.546875 8.96875 -3.890625 C 9.976562 -4.460938 10.984375 -4.515625 11.984375 -4.046875 C 12.992188 -3.578125 13.910156 -2.625 14.734375 -1.1875 C 15.515625 0.1875 15.976562 1.695312 16.125 3.34375 L 13.359375 3.6875 C 13.265625 2.957031 13.15625 2.300781 13.03125 1.71875 C 12.90625 1.144531 12.695312 0.597656 12.40625 0.078125 C 11.875 -0.835938 11.363281 -1.15625 10.875 -0.875 C 10.59375 -0.707031 10.4375 -0.421875 10.40625 -0.015625 C 10.375 0.390625 10.441406 1.210938 10.609375 2.453125 C 10.742188 3.546875 10.773438 4.390625 10.703125 4.984375 C 10.628906 5.578125 10.445312 6.085938 10.15625 6.515625 C 9.863281 6.953125 9.4375 7.332031 8.875 7.65625 Z M 8.875 7.65625 "/></g></g></g><g fill="#ffffff" fill-opacity="1"><g transform="translate(282.961326, 297.934856)"><g><path d="M -9.078125 7.9375 L -1.625 1.421875 L 9.671875 14.359375 L 2.21875 20.875 L 0.25 18.625 L 4.96875 14.5 L 2.5 11.65625 L -1.890625 15.484375 L -3.859375 13.234375 L 0.53125 9.40625 L -2.375 6.078125 L -7.09375 10.203125 Z M -9.078125 7.9375 "/></g></g></g><g fill="#ffffff" fill-opacity="1"><g transform="translate(273.671356, 306.354226)"><g><path d="M -14.328125 9.890625 L -10.5 7.25 L 3.03125 13.71875 L 3.125 13.65625 C 1.6875 11.84375 0.691406 10.53125 0.140625 9.71875 L -4.453125 3.078125 L -1.78125 1.21875 L 7.984375 15.34375 L 4.21875 17.96875 L -9.25 11.625 L -9.3125 11.671875 C -7.945312 13.441406 -7.003906 14.707031 -6.484375 15.46875 L -1.859375 22.15625 L -4.5625 24.015625 Z M -14.328125 9.890625 "/></g></g></g><g fill="#ffffff" fill-opacity="1"><g transform="translate(258.468014, 316.871316)"><g><path d="M -10.5625 15.296875 C -11.851562 12.785156 -12.128906 10.492188 -11.390625 8.421875 C -10.660156 6.347656 -8.945312 4.613281 -6.25 3.21875 L -1.921875 0.984375 L 5.953125 16.25 L 1.15625 18.734375 C -1.332031 20.015625 -3.601562 20.347656 -5.65625 19.734375 C -7.707031 19.128906 -9.34375 17.648438 -10.5625 15.296875 Z M -7.25 13.46875 C -5.5625 16.75 -3.273438 17.644531 -0.390625 16.15625 L 1.34375 15.265625 L -3.78125 5.34375 L -5.171875 6.0625 C -8.285156 7.664062 -8.976562 10.132812 -7.25 13.46875 Z M -7.25 13.46875 "/></g></g></g><g fill="#ffffff" fill-opacity="1"><g transform="translate(243.628913, 324.651579)"><g><path d="M -13.71875 14.171875 C -14.695312 11.492188 -14.785156 9.195312 -13.984375 7.28125 C -13.179688 5.363281 -11.546875 3.957031 -9.078125 3.0625 C -6.597656 2.15625 -4.4375 2.175781 -2.59375 3.125 C -0.75 4.070312 0.660156 5.894531 1.640625 8.59375 C 2.617188 11.269531 2.703125 13.5625 1.890625 15.46875 C 1.078125 17.382812 -0.566406 18.789062 -3.046875 19.6875 C -5.535156 20.59375 -7.691406 20.566406 -9.515625 19.609375 C -11.347656 18.660156 -12.75 16.847656 -13.71875 14.171875 Z M -1.953125 9.875 C -2.609375 8.070312 -3.441406 6.835938 -4.453125 6.171875 C -5.472656 5.503906 -6.664062 5.421875 -8.03125 5.921875 C -10.757812 6.910156 -11.460938 9.222656 -10.140625 12.859375 C -8.816406 16.492188 -6.796875 17.816406 -4.078125 16.828125 C -2.710938 16.335938 -1.851562 15.503906 -1.5 14.328125 C -1.144531 13.160156 -1.296875 11.675781 -1.953125 9.875 Z M -1.953125 9.875 "/></g></g></g><g fill="#ffffff" fill-opacity="1"><g transform="translate(226.555499, 330.813384)"><g><path d="M -5.90625 16.1875 C -4.570312 15.875 -3.65625 15.125 -3.15625 13.9375 C -2.65625 12.757812 -2.617188 11.273438 -3.046875 9.484375 C -3.921875 5.753906 -5.757812 4.222656 -8.5625 4.890625 C -9.738281 5.160156 -11.09375 5.789062 -12.625 6.78125 L -13.328125 3.796875 C -12.078125 2.898438 -10.609375 2.253906 -8.921875 1.859375 C -6.492188 1.285156 -4.460938 1.582031 -2.828125 2.75 C -1.191406 3.925781 -0.0507812 5.890625 0.59375 8.640625 C 1.007812 10.390625 1.054688 11.992188 0.734375 13.453125 C 0.410156 14.910156 -0.257812 16.125 -1.28125 17.09375 C -2.3125 18.070312 -3.625 18.75 -5.21875 19.125 C -6.84375 19.5 -8.5625 19.488281 -10.375 19.09375 L -9.921875 15.9375 C -9.222656 16.101562 -8.53125 16.21875 -7.84375 16.28125 C -7.15625 16.351562 -6.507812 16.320312 -5.90625 16.1875 Z M -5.90625 16.1875 "/></g></g></g><g fill="#ffffff" fill-opacity="1"><g transform="translate(212.522047, 334.179757)"><g><path d="M -4.578125 10.1875 L -5.765625 10.328125 C -6.898438 10.472656 -7.710938 10.769531 -8.203125 11.21875 C -8.691406 11.675781 -8.890625 12.3125 -8.796875 13.125 C -8.691406 13.9375 -8.34375 14.476562 -7.75 14.75 C -7.15625 15.019531 -6.273438 15.082031 -5.109375 14.9375 L -4 14.796875 Z M -4.9375 7.265625 L -5.75 0.71875 L -2.140625 0.265625 L -0.015625 17.3125 L -4.984375 17.9375 C -7.304688 18.21875 -9.070312 18.003906 -10.28125 17.296875 C -11.5 16.597656 -12.21875 15.390625 -12.4375 13.671875 C -12.5625 12.671875 -12.394531 11.742188 -11.9375 10.890625 C -11.488281 10.046875 -10.785156 9.335938 -9.828125 8.765625 C -12.867188 5.242188 -14.847656 2.976562 -15.765625 1.96875 L -11.75 1.46875 L -6.875 7.5 Z M -4.9375 7.265625 "/></g></g></g><g fill="#ffffff" fill-opacity="1"><g transform="translate(197.439224, 335.923513)"><g><path d="M -2.15625 0.09375 L -1.4375 17.25 L -5.078125 17.40625 L -5.796875 0.25 Z M -2.15625 0.09375 "/></g></g></g><g fill="#ffffff" fill-opacity="1"><g transform="translate(190.277022, 336.535928)"><g><path d="M -17.375 -0.90625 L -12.75 -0.671875 L -5.984375 12.703125 L -5.875 12.71875 C -5.90625 10.40625 -5.894531 8.757812 -5.84375 7.78125 L -5.421875 -0.28125 L -2.15625 -0.109375 L -3.0625 17.03125 L -7.640625 16.78125 L -14.421875 3.5625 L -14.5 3.5625 C -14.507812 5.789062 -14.535156 7.367188 -14.578125 8.296875 L -15.015625 16.40625 L -18.28125 16.234375 Z M -17.375 -0.90625 "/></g></g></g><g fill="#ffffff" fill-opacity="1"><g transform="translate(171.845576, 335.627081)"><g><path d="M -19.046875 5.203125 C -18.515625 2.398438 -17.410156 0.378906 -15.734375 -0.859375 C -14.066406 -2.097656 -11.941406 -2.476562 -9.359375 -2 C -6.773438 -1.507812 -4.925781 -0.382812 -3.8125 1.375 C -2.707031 3.132812 -2.421875 5.425781 -2.953125 8.25 C -3.472656 11.050781 -4.570312 13.0625 -6.25 14.28125 C -7.925781 15.5 -10.054688 15.867188 -12.640625 15.390625 C -15.242188 14.898438 -17.09375 13.78125 -18.1875 12.03125 C -19.28125 10.28125 -19.566406 8.003906 -19.046875 5.203125 Z M -6.71875 7.5 C -6.363281 5.613281 -6.453125 4.125 -6.984375 3.03125 C -7.523438 1.945312 -8.503906 1.269531 -9.921875 1 C -12.785156 0.46875 -14.578125 2.101562 -15.296875 5.90625 C -16.003906 9.707031 -14.929688 11.875 -12.078125 12.40625 C -10.660156 12.664062 -9.5 12.378906 -8.59375 11.546875 C -7.6875 10.722656 -7.0625 9.375 -6.71875 7.5 Z M -6.71875 7.5 "/></g></g></g><g fill="#ffffff" fill-opacity="1"><g transform="translate(153.979139, 332.172387)"><g><path d="M -2.0625 -0.625 L -7.09375 15.796875 L -10.578125 14.71875 L -6.4375 1.1875 L -13.09375 -0.859375 L -12.203125 -3.75 Z M -2.0625 -0.625 "/></g></g></g><g fill="#ffffff" fill-opacity="1"><g transform="translate(141.816511, 328.656522)"><g><path d="M -19.71875 0.8125 C -18.582031 -1.789062 -17.0625 -3.507812 -15.15625 -4.34375 C -13.25 -5.1875 -11.09375 -5.082031 -8.6875 -4.03125 C -6.269531 -2.988281 -4.71875 -1.484375 -4.03125 0.484375 C -3.351562 2.453125 -3.585938 4.75 -4.734375 7.375 C -5.867188 9.988281 -7.382812 11.703125 -9.28125 12.515625 C -11.175781 13.335938 -13.332031 13.222656 -15.75 12.171875 C -18.175781 11.117188 -19.726562 9.617188 -20.40625 7.671875 C -21.082031 5.722656 -20.851562 3.4375 -19.71875 0.8125 Z M -8.21875 5.8125 C -7.445312 4.0625 -7.203125 2.59375 -7.484375 1.40625 C -7.773438 0.21875 -8.582031 -0.660156 -9.90625 -1.234375 C -12.570312 -2.398438 -14.675781 -1.210938 -16.21875 2.328125 C -17.757812 5.878906 -17.203125 8.234375 -14.546875 9.390625 C -13.222656 9.972656 -12.023438 9.960938 -10.953125 9.359375 C -9.890625 8.753906 -8.976562 7.570312 -8.21875 5.8125 Z M -8.21875 5.8125 "/></g></g></g><g fill="#ffffff" fill-opacity="1"><g transform="translate(125.214896, 321.452015)"><g><path d="M -12.390625 3.859375 L -18.25 0.390625 L -13.703125 -7.28125 C -12.578125 -7.019531 -11.554688 -6.703125 -10.640625 -6.328125 C -9.722656 -5.960938 -8.828125 -5.519531 -7.953125 -5 C -5.722656 -3.675781 -4.40625 -2.007812 -4 0 C -3.601562 2.007812 -4.132812 4.242188 -5.59375 6.703125 C -7.007812 9.085938 -8.796875 10.539062 -10.953125 11.0625 C -13.109375 11.582031 -15.394531 11.125 -17.8125 9.6875 C -19.320312 8.789062 -20.597656 7.617188 -21.640625 6.171875 L -19.140625 4.28125 C -18.378906 5.457031 -17.410156 6.394531 -16.234375 7.09375 C -14.878906 7.894531 -13.523438 8.082031 -12.171875 7.65625 C -10.828125 7.226562 -9.695312 6.25 -8.78125 4.71875 C -7.832031 3.113281 -7.429688 1.691406 -7.578125 0.453125 C -7.734375 -0.773438 -8.441406 -1.757812 -9.703125 -2.5 C -10.347656 -2.894531 -11.050781 -3.222656 -11.8125 -3.484375 L -13.640625 -0.40625 L -10.84375 1.25 Z M -12.390625 3.859375 "/></g></g></g><g fill="#ffffff" fill-opacity="1"><g transform="translate(110.964778, 312.789238)"><g><path d="M -1.75 -1.265625 L -11.765625 12.6875 L -14.71875 10.578125 L -4.703125 -3.375 Z M -1.75 -1.265625 "/></g></g></g><g fill="#ffffff" fill-opacity="1"><g transform="translate(104.944236, 308.727564)"><g><path d="M -9.625 -8.234375 L -11.34375 -4.328125 L -6.59375 -0.25 L -2.984375 -2.546875 L 0 0 L -15.8125 9.171875 L -19.203125 6.28125 L -12.625 -10.796875 Z M -12.671875 -1.4375 C -14.191406 2.132812 -15.054688 4.148438 -15.265625 4.609375 C -15.484375 5.066406 -15.65625 5.421875 -15.78125 5.671875 C -14.9375 5.085938 -12.765625 3.6875 -9.265625 1.46875 Z M -12.671875 -1.4375 "/></g></g></g></svg>